<?xml version="1.0" standalone="no"?><!DOCTYPE svg PUBLIC "-//W3C//DTD SVG 1.1//EN" "http://www.w3.org/Graphics/SVG/1.1/DTD/svg11.dtd"><svg class="lds-comets" width="100%" height="100%" xmlns:xlink="http://www.w3.org/1999/xlink" viewBox="0 0 100 100" preserveAspectRatio="xMidYMid" version="1.1" xmlns="http://www.w3.org/2000/svg"><defs xmlns="http://www.w3.org/1999/xhtml"><style type="text/css"><![CDATA[
.src-components-NavBar__root--2saWl { position: absolute; top: 0px; left: 0px; width: 100%; box-sizing: border-box; padding: 6px 12px; }
.src-components-NavBar__root--2saWl .src-components-NavBar__logo--2W-GP { float: left; }
.src-components-NavBar__root--2saWl .src-components-NavBar__menu--3Z-El { list-style-type: none; margin: 0px; padding: 12px 24px; float: right; }
html { line-height: 1.15; text-size-adjust: 100%; }
body { margin: 0px; }
main { display: block; }
h1 { font-size: 2em; margin: 0.67em 0px; }
hr { box-sizing: content-box; height: 0px; overflow: visible; }
pre { font-family: monospace, monospace; font-size: 1em; }
a { background-color: transparent; }
abbr[title] { border-bottom: none; text-decoration: underline dotted; }
b, strong { font-weight: bolder; }
code, kbd, samp { font-family: monospace, monospace; font-size: 1em; }
small { font-size: 80%; }
sub, sup { font-size: 75%; line-height: 0; position: relative; vertical-align: baseline; }
sub { bottom: -0.25em; }
sup { top: -0.5em; }
img { border-style: none; }
button, input, optgroup, select, textarea { font-family: inherit; font-size: 100%; line-height: 1.15; margin: 0px; }
button, input { overflow: visible; }
button, select { text-transform: none; }
button, [type="button"], [type="reset"], [type="submit"] { -webkit-appearance: button; }
fieldset { padding: 0.35em 0.75em 0.625em; }
legend { box-sizing: border-box; color: inherit; display: table; max-width: 100%; padding: 0px; white-space: normal; }
progress { vertical-align: baseline; }
textarea { overflow: auto; }
[type="checkbox"], [type="radio"] { box-sizing: border-box; padding: 0px; }
[type="number"]::-webkit-inner-spin-button, [type="number"]::-webkit-outer-spin-button { height: auto; }
[type="search"] { -webkit-appearance: textfield; outline-offset: -2px; }
[type="search"]::-webkit-search-decoration { -webkit-appearance: none; }
::-webkit-file-upload-button { -webkit-appearance: button; font: inherit; }
details { display: block; }
summary { display: list-item; }
template { display: none; }
[hidden] { display: none; }
body { margin: 0px; padding: 0px; font-family: -apple-system, BlinkMacSystemFont, "Segoe UI", Roboto, Oxygen, Ubuntu, Cantarell, "Fira Sans", "Droid Sans", "Helvetica Neue", sans-serif; -webkit-font-smoothing: antialiased; }
code { font-family: source-code-pro, Menlo, Monaco, Consolas, "Courier New", monospace; }
.src-containers-Home-styles__root--Eg3Mt { text-align: center; color: rgb(53, 53, 53); font-size: 16px; background-color: rgb(255, 255, 255); line-height: 1.6em; background-image: url("/assets/img/background.08a4d56.png"); background-repeat: no-repeat; background-position: 0px 0px; background-size: cover; }
.src-containers-Home-styles__root--Eg3Mt .src-containers-Home-styles__main--3MIx6 { min-height: 100vh; display: flex; flex-direction: column; align-items: center; justify-content: center; font-size: calc(10px + 3vmin); }]]></style></defs><g transform="scale(-1,1) translate(-100,0)"><g transform="rotate(30.947 50 50)">
  <animateTransform attributeName="transform" type="rotate" repeatCount="indefinite" values="360 50 50;0 50 50" keyTimes="0;1" dur="2.7s" keySplines="0.5 0.5 0.5 0.5" calcMode="spline"/>
  <path fill="#8bba14" d="M91,74.1C75.6,98,40.7,102.4,21.2,81c11,9.9,26.8,13.5,40.8,8.7c7.4-2.5,13.9-7.2,18.7-13.3 c1.8-2.3,3.5-7.6,6.7-8C90.5,67.9,92.7,71.5,91,74.1z"/>
  <path fill="#ea6539" d="M50.7,5c-4,0.2-4.9,5.9-1.1,7.3c1.8,0.6,4.1,0.1,5.9,0.3c2.1,0.1,4.3,0.5,6.4,0.9c5.8,1.4,11.3,4,16,7.8 C89.8,31.1,95.2,47,92,62c4.2-13.1,1.6-27.5-6.4-38.7c-3.4-4.7-7.8-8.7-12.7-11.7C66.6,7.8,58.2,4.6,50.7,5z"/>
  <path fill="#0792a1" d="M30.9,13.4C12,22.7,2.1,44.2,7.6,64.8c0.8,3.2,3.8,14.9,9.3,10.5c2.4-2,1.1-4.4-0.2-6.6 c-1.7-3-3.1-6.2-4-9.5C10.6,51,11.1,41.9,14.4,34c4.7-11.5,14.1-19.7,25.8-23.8C37,11,33.9,11.9,30.9,13.4z"/></g></g></svg>